<?xml version="1.0" encoding="UTF-8" standalone="no"?>
<!-- Created with Inkscape (http://www.inkscape.org/) -->

<svg
   xmlns:dc="http://purl.org/dc/elements/1.1/"
   xmlns:cc="http://creativecommons.org/ns#"
   xmlns:rdf="http://www.w3.org/1999/02/22-rdf-syntax-ns#"
   xmlns:svg="http://www.w3.org/2000/svg"
   xmlns="http://www.w3.org/2000/svg"
   xmlns:sodipodi="http://sodipodi.sourceforge.net/DTD/sodipodi-0.dtd"
   xmlns:inkscape="http://www.inkscape.org/namespaces/inkscape"
   width="744.09448819"
   height="1052.3622047"
   id="svg2"
   version="1.1"
   inkscape:version="0.48.2 r9819"
   sodipodi:docname="logo.svg">
  <defs
     id="defs4" />
  <sodipodi:namedview
     id="base"
     pagecolor="#ffffff"
     bordercolor="#666666"
     borderopacity="1.0"
     inkscape:pageopacity="0.0"
     inkscape:pageshadow="2"
     inkscape:zoom="0.3"
     inkscape:cx="465.54667"
     inkscape:cy="590.47619"
     inkscape:document-units="px"
     inkscape:current-layer="layer1"
     showgrid="false"
     inkscape:window-width="1366"
     inkscape:window-height="717"
     inkscape:window-x="-6"
     inkscape:window-y="-6"
     inkscape:window-maximized="1" />
  <metadata
     id="metadata7">
    <rdf:RDF>
      <cc:Work
         rdf:about="">
        <dc:format>image/svg+xml</dc:format>
        <dc:type
           rdf:resource="http://purl.org/dc/dcmitype/StillImage" />
        <dc:title></dc:title>
      </cc:Work>
    </rdf:RDF>
  </metadata>
  <g
     inkscape:label="Layer 1"
     inkscape:groupmode="layer"
     id="layer1">
    <path
       style="fill:#d22333;fill-opacity:1;stroke:none"
       d="m 46.547,349.98352 c -1.3525,-0.68276 -3.1809,-2.32182 -4.063,-3.64236 l -1.604,-2.40099 0,-101.83688 0,-101.83689 1.7234,-2.53617 c 3.4334,-5.05267 1.315,-4.85801 52.8647,-4.85801 l 46.2484,0 2.336,1.58988 c 1.2848,0.87443 3.0012,2.48703 3.8142,3.58354 1.4292,1.92754 1.4899,2.96022 1.8315,31.14409 l 0.3533,29.15045 1.7589,2.56551 c 2.699,3.93678 5.2272,4.66672 16.9663,4.89853 9.5138,0.18787 10.4159,0.32356 12.6247,1.89896 1.3084,0.93314 2.9708,2.99998 3.6942,4.59297 1.2509,2.75442 1.316,5.97816 1.327,65.78481 0.01,39.14258 -0.2512,63.83411 -0.6842,65.39294 -0.3827,1.37746 -1.8294,3.60329 -3.2149,4.94628 l -2.5191,2.4418 -65.4992,0.18146 c -61.2845,0.16979 -65.6574,0.10158 -67.9582,-1.05992 l 0,0 z m 97.3568,-72.54204 c 5.3521,-2.78473 6.8103,-7.23112 6.375,-19.43955 -0.272,-7.62941 -0.4703,-8.65596 -2.1682,-11.22155 -3.367,-5.08791 -3.9716,-5.17089 -35.9886,-4.93936 -27.177,0.19652 -28.0981,0.24807 -30.031,1.68093 -1.0967,0.81301 -2.7095,2.5294 -3.5839,3.81421 -1.4758,2.16841 -1.5897,3.10165 -1.5872,13.00734 0,11.94687 0.6131,13.93724 5.1138,16.68136 2.1984,1.34039 3.6114,1.40424 31.1325,1.40676 23.3871,0.002 29.1897,-0.18477 30.7376,-0.99014 l 0,0 z m -36.4224,-72.90774 c 1.2912,-0.61573 3.1303,-2.26251 4.087,-3.65951 1.6669,-2.43423 1.7393,-3.00345 1.7393,-13.66845 0,-10.13788 -0.1297,-11.30205 -1.4569,-13.07886 -3.3463,-4.47996 -4.4598,-4.84413 -15.5725,-5.09331 -9.3246,-0.2091 -10.4971,-0.0944 -13.4003,1.31103 -5.3314,2.58091 -6.1043,4.96789 -5.8329,18.01497 0.252,12.11287 0.779,13.62424 5.5875,16.02313 3.3991,1.69575 21.3803,1.80502 24.8488,0.151 z"
       id="path3008"
       inkscape:connector-curvature="0"
       inkscape:export-filename="C:\Users\Meli\Desktop\logo drawings\logo.png"
       inkscape:export-xdpi="300"
       inkscape:export-ydpi="300" />
    <path
       style="fill:#d22333;fill-opacity:1;stroke:none"
       d="m 265.1505,349.88211 c -1.2092,-0.74438 -2.9581,-2.41831 -3.8864,-3.71984 l -1.6877,-2.36641 -0.3533,-29.35725 c -0.3189,-26.49257 -0.475,-29.54269 -1.5998,-31.25773 -2.5601,-3.90357 -4.128,-4.36413 -16.1587,-4.74662 -12.2795,-0.39038 -13.3612,-0.7563 -16.6889,-5.6457 l -1.5898,-2.33602 0,-64.99704 c 0,-64.80304 0,-65.00421 1.4844,-67.3989 0.8164,-1.32102 2.7318,-3.03826 4.2565,-3.81607 2.658,-1.35599 3.9469,-1.40598 31.3221,-1.2146 27.7601,0.19407 28.6052,0.24075 30.5441,1.68669 1.0968,0.8179 2.6301,2.56676 3.4073,3.88636 1.3652,2.31774 1.4253,4.00821 1.7666,49.74228 l 0.3533,47.34299 1.5807,2.21612 c 2.5334,3.55158 5.9598,4.49669 16.3025,4.49669 7.9556,0 9.3926,-0.18791 12.1585,-1.58988 1.8576,-0.94154 3.7196,-2.59839 4.5661,-4.06301 1.3857,-2.39758 1.4402,-3.91968 1.7827,-49.81614 l 0.3533,-47.34299 1.6487,-2.31161 c 2.6205,-3.67395 5.3225,-4.40121 16.3517,-4.40121 8.8979,0 9.8953,0.13175 12.0378,1.58988 1.2848,0.87443 3.0012,2.48752 3.8142,3.58466 1.4712,1.98538 1.4791,2.29973 1.6658,66.64496 0.209,72.0483 0.501,67.55773 -4.6476,71.48595 -2.4072,1.83652 -2.8854,1.91568 -13.6314,2.25659 -12.1044,0.38401 -13.1176,0.7046 -16.4889,5.21712 -1.4018,1.87627 -1.4703,3.05074 -1.8102,31.04726 -0.2446,20.13883 -0.6102,29.66991 -1.1875,30.95735 -0.4588,1.02306 -1.8897,2.61294 -3.1798,3.53306 l -2.3455,1.67293 -28.9711,0.18678 c -27.4897,0.17722 -29.0835,0.11756 -31.1697,-1.16665 l 0,0 z"
       id="path3010"
       inkscape:connector-curvature="0"
       inkscape:export-filename="C:\Users\Meli\Desktop\logo drawings\logo.png"
       inkscape:export-xdpi="300"
       inkscape:export-ydpi="300" />
    <path
       style="fill:#d22333;fill-opacity:1;stroke:none"
       d="m 447.9386,349.97762 c -3.0137,-1.53673 -4.8987,-4.05191 -5.7331,-7.64967 -0.3658,-1.57712 -0.6501,-37.88668 -0.6597,-84.24386 -0.019,-89.73534 0.2815,-83.82061 -4.4226,-87.17576 -2.1124,-1.50676 -3.2312,-1.6754 -13.2596,-1.9989 -12.4484,-0.40156 -14.6364,-1.14707 -17.0259,-5.8014 -1.1288,-2.19859 -1.346,-4.17008 -1.346,-12.21721 0,-11.36382 0.9681,-14.21536 5.6343,-16.59587 2.7347,-1.39517 4.0393,-1.42273 67.3674,-1.42273 l 64.57861,0 2.38418,1.60669 c 1.31129,0.8837 3.10718,2.67958 3.99086,3.99087 1.48387,2.20191 1.60669,3.15141 1.60669,12.42104 0,9.26964 -0.12282,10.21914 -1.60669,12.42105 -0.88368,1.31129 -2.67957,3.10719 -3.99086,3.99087 -2.18057,1.46949 -3.20497,1.6101 -11.99559,1.64658 -11.17325,0.0464 -13.59091,0.69287 -16.61047,4.44177 l -2.1869,2.71513 -0.3533,84.32326 c -0.34939,83.38758 -0.36925,84.3446 -1.78927,86.24628 -0.78978,1.05766 -2.53366,2.51173 -3.87536,3.23127 -2.2563,1.2101 -4.5344,1.30817 -30.3616,1.30716 -25.1868,-6.4e-4 -28.1595,-0.12213 -30.3451,-1.23657 l 0,0 z"
       id="path3012"
       inkscape:connector-curvature="0"
       inkscape:export-filename="C:\Users\Meli\Desktop\logo drawings\logo.png"
       inkscape:export-xdpi="300"
       inkscape:export-ydpi="300" />
    <path
       style="fill:#d22333;fill-opacity:1;stroke:none"
       d="m 594.51037,350.54917 c -2.4288,-0.99086 -5.26577,-4.3569 -6.01399,-7.13552 -0.47446,-1.76206 -0.65478,-36.69621 -0.53172,-103.01905 l 0.18621,-100.35288 1.47818,-1.99487 c 0.81302,-1.09719 2.53908,-2.71683 3.83572,-3.59923 l 2.35751,-1.60438 47.16555,0.19115 c 46.69497,0.18924 47.18548,0.20598 49.1602,1.67823 4.17075,3.10952 4.82105,5.29173 4.82105,16.1782 0,8.62174 -0.18154,10.2008 -1.41323,12.29185 -2.88079,4.89084 -4.16058,5.33414 -16.53272,5.72676 -10.36878,0.32904 -11.30778,0.47278 -13.66955,2.09268 -4.12728,2.83077 -4.77501,5.04611 -4.77501,16.33135 0,16.32342 1.94416,18.31979 17.84072,18.31979 8.36604,0 9.76795,0.17753 12.55435,1.58987 5.21403,2.64284 5.99544,4.78406 5.99544,16.42873 0,8.62173 -0.18154,10.20078 -1.41323,12.29184 -2.88183,4.89259 -4.15674,5.33416 -16.53427,5.72676 -10.94272,0.34709 -11.18574,0.38915 -13.80596,2.38963 -4.62927,3.53438 -4.63705,3.59251 -4.63705,34.71295 0,26.62985 0.0678,28.09487 1.42274,30.7508 2.3862,4.67733 5.21789,5.63212 16.74437,5.64587 8.7693,0.0105 10.02286,0.16955 12.53114,1.59028 4.41657,2.50161 5.54476,5.15529 5.90458,13.88838 0.51192,12.42488 -1.35981,17.60851 -7.14778,19.79536 -2.3838,0.90066 -93.32557,0.98201 -95.52325,0.0855 l 0,0 z"
       id="path3014"
       inkscape:connector-curvature="0"
       inkscape:export-filename="C:\Users\Meli\Desktop\logo drawings\logo.png"
       inkscape:export-xdpi="300"
       inkscape:export-ydpi="300" />
  </g>
</svg>
