<?xml version="1.0" encoding="UTF-8" standalone="no"?>
<!-- Created with Inkscape (http://www.inkscape.org/) -->

<svg
   xmlns:dc="http://purl.org/dc/elements/1.1/"
   xmlns:cc="http://creativecommons.org/ns#"
   xmlns:rdf="http://www.w3.org/1999/02/22-rdf-syntax-ns#"
   xmlns:svg="http://www.w3.org/2000/svg"
   xmlns="http://www.w3.org/2000/svg"
   xmlns:sodipodi="http://sodipodi.sourceforge.net/DTD/sodipodi-0.dtd"
   xmlns:inkscape="http://www.inkscape.org/namespaces/inkscape"
   width="744.09448819"
   height="1052.3622047"
   id="svg4661"
   version="1.1"
   inkscape:version="0.48.2 r9819"
   sodipodi:docname="New document 27">
  <defs
     id="defs4663" />
  <sodipodi:namedview
     id="base"
     pagecolor="#ffffff"
     bordercolor="#666666"
     borderopacity="1.0"
     inkscape:pageopacity="0.0"
     inkscape:pageshadow="2"
     inkscape:zoom="0.35"
     inkscape:cx="375"
     inkscape:cy="520"
     inkscape:document-units="px"
     inkscape:current-layer="layer1"
     showgrid="false"
     inkscape:window-width="1366"
     inkscape:window-height="717"
     inkscape:window-x="-6"
     inkscape:window-y="-6"
     inkscape:window-maximized="1" />
  <metadata
     id="metadata4666">
    <rdf:RDF>
      <cc:Work
         rdf:about="">
        <dc:format>image/svg+xml</dc:format>
        <dc:type
           rdf:resource="http://purl.org/dc/dcmitype/StillImage" />
        <dc:title></dc:title>
      </cc:Work>
    </rdf:RDF>
  </metadata>
  <g
     inkscape:label="Layer 1"
     inkscape:groupmode="layer"
     id="layer1">
    <path
       style="fill:#808080;fill-opacity:1;stroke:none"
       d="m 316.74613,358.00148 27.50065,-20.40371 c 5.39292,-4.0012 -20.46233,-2.44649 -19.16044,4.14125 l 28.89496,146.21212 c 1.3019,6.58775 -4.3416,15.34241 -9.73452,19.34361 l -27.50065,20.40371 c -5.39293,4.0012 -9.21254,1.79601 -9.73452,-4.89883 L 295.50263,375.18714 c -0.52198,-6.69483 15.85057,-13.18446 21.2435,-17.18566 z"
       id="rect4798"
       inkscape:connector-curvature="0"
       sodipodi:nodetypes="sssssssss"
       inkscape:export-filename="C:\Users\Meli\Desktop\robot.png"
       inkscape:export-xdpi="300"
       inkscape:export-ydpi="300" />
    <rect
       style="fill:#808080;fill-opacity:1;stroke:none"
       id="rect4821-9"
       width="24.423832"
       height="26.11585"
       x="360.00323"
       y="815.01666"
       ry="3.8898754"
       transform="matrix(0.84039206,-0.54197895,0,1,0,0)"
       inkscape:export-filename="C:\Users\Meli\Desktop\robot.png"
       inkscape:export-xdpi="300"
       inkscape:export-ydpi="300" />
    <rect
       style="fill:#808080;fill-opacity:1;stroke:none"
       id="rect4821"
       width="24.423832"
       height="26.11585"
       x="279.46494"
       y="759.12573"
       ry="3.8898754"
       transform="matrix(0.84039206,-0.54197895,0,1,0,0)"
       inkscape:export-filename="C:\Users\Meli\Desktop\robot.png"
       inkscape:export-xdpi="300"
       inkscape:export-ydpi="300" />
    <path
       style="fill:#4d4d4d;fill-opacity:1;stroke:none"
       d="m 297.24264,603.28449 23.28896,3.87159 c 2.47717,0.4118 2.51501,1.38962 0.23715,2.6446 l -12.64745,6.96806 c -2.27787,1.25498 -4.78648,4.68917 -7.20214,3.90456 l -24.60445,-7.99147 c -2.41557,-0.78458 -2.58289,-1.5913 -0.23715,-2.64462 l 12.45956,-5.59477 c 2.34572,-1.05331 6.22847,-1.56975 8.70552,-1.15795 z"
       id="rect5353-1"
       inkscape:connector-curvature="0"
       sodipodi:nodetypes="sssssssss"
       inkscape:export-filename="C:\Users\Meli\Desktop\robot.png"
       inkscape:export-xdpi="300"
       inkscape:export-ydpi="300" />
    <path
       style="fill:#4d4d4d;fill-opacity:1;stroke:none"
       d="m 229.55887,591.04364 23.28896,3.8716 c 2.47717,0.4118 2.51501,1.38962 0.23715,2.6446 l -12.64745,6.96805 c -2.27787,1.25499 -4.78648,4.68918 -7.20214,3.90457 l -24.60445,-7.99147 c -2.41557,-0.78458 -2.58289,-1.5913 -0.23715,-2.64462 l 12.45956,-5.59477 c 2.34572,-1.05331 6.22847,-1.56975 8.70552,-1.15796 z"
       id="rect5353"
       inkscape:connector-curvature="0"
       sodipodi:nodetypes="sssssssss"
       inkscape:export-filename="C:\Users\Meli\Desktop\robot.png"
       inkscape:export-xdpi="300"
       inkscape:export-ydpi="300" />
    <rect
       style="fill:#333333;fill-opacity:1;stroke:none"
       id="rect4801-0"
       width="34.883823"
       height="28.99938"
       x="279.6813"
       y="546.54132"
       ry="6.6573715"
       transform="matrix(0.97441306,0.22476476,0,1,0,0)"
       inkscape:export-filename="C:\Users\Meli\Desktop\robot.png"
       inkscape:export-xdpi="300"
       inkscape:export-ydpi="300" />
    <rect
       style="fill:#333333;fill-opacity:1;stroke:none"
       id="rect4801"
       width="34.883823"
       height="28.99938"
       x="210.22026"
       y="549.9129"
       ry="6.6573715"
       transform="matrix(0.97441306,0.22476476,0,1,0,0)"
       inkscape:export-filename="C:\Users\Meli\Desktop\robot.png"
       inkscape:export-xdpi="300"
       inkscape:export-ydpi="300" />
    <path
       style="fill:#333333;stroke:none"
       d="m 218.90381,413.22641 c -47.6495,-19.22156 -55.08202,-25.96276 -95.97109,-54.70912 l -17.43959,14.98313 c 47.61823,38.48353 70.72982,48.53617 116.9044,69.80484 z"
       id="path4871"
       inkscape:connector-curvature="0"
       sodipodi:nodetypes="ccccc"
       inkscape:export-filename="C:\Users\Meli\Desktop\robot.png"
       inkscape:export-xdpi="300"
       inkscape:export-ydpi="300" />
    <path
       style="fill:#999999;stroke:none"
       d="m 201.41416,404.657 -20.17057,-10.24045 c -6.42378,6.4153 -14.05257,11.75949 -13.34361,24.51501 l 29.48006,15.20551 z"
       id="path4873"
       inkscape:connector-curvature="0"
       sodipodi:nodetypes="ccccc"
       inkscape:export-filename="C:\Users\Meli\Desktop\robot.png"
       inkscape:export-xdpi="300"
       inkscape:export-ydpi="300" />
    <path
       style="fill:#333333;fill-opacity:1;stroke:none"
       d="m 220.28934,500.36313 0.0696,94.52946 c 0.74119,7.99776 20.4793,8.84484 22.48865,5.26501 l -0.0696,-98.67779 z"
       id="path5297"
       inkscape:connector-curvature="0"
       sodipodi:nodetypes="ccccc"
       inkscape:export-filename="C:\Users\Meli\Desktop\robot.png"
       inkscape:export-xdpi="300"
       inkscape:export-ydpi="300" />
    <path
       style="fill:#999999;fill-opacity:1;stroke:none"
       d="m 219.00606,507.92608 c 7.63793,7.02337 16.27457,7.37598 25.35215,4.78349 l 0.12614,21.29692 c -9.61039,4.72135 -18.0772,6.40855 -25.90799,-5.51138 z"
       id="path5299"
       inkscape:connector-curvature="0"
       sodipodi:nodetypes="ccccc"
       inkscape:export-filename="C:\Users\Meli\Desktop\robot.png"
       inkscape:export-xdpi="300"
       inkscape:export-ydpi="300" />
    <path
       style="fill:#333333;fill-opacity:1;stroke:none"
       d="m 286.07438,511.97106 0.0696,94.52946 c 0.74119,7.99776 20.4793,8.84484 22.48865,5.26501 l -0.0696,-98.67779 z"
       id="path5297-8"
       inkscape:connector-curvature="0"
       sodipodi:nodetypes="ccccc"
       inkscape:export-filename="C:\Users\Meli\Desktop\robot.png"
       inkscape:export-xdpi="300"
       inkscape:export-ydpi="300" />
    <path
       style="fill:#999999;fill-opacity:1;stroke:none"
       d="m 284.7911,514.30608 c 7.63793,8.26175 16.27458,8.67653 25.35215,5.62693 l 0.12614,25.05206 c -9.61039,5.55384 -18.0772,7.53853 -25.90799,-6.48317 z"
       id="path5299-5"
       inkscape:connector-curvature="0"
       sodipodi:nodetypes="ccccc"
       inkscape:export-filename="C:\Users\Meli\Desktop\robot.png"
       inkscape:export-xdpi="300"
       inkscape:export-ydpi="300" />
    <path
       style="fill:#4d4d4d;fill-opacity:1;stroke:none"
       d="m 219.99603,326.06261 73.42328,9.23213 c 19.71603,2.47906 6.04365,12.7269 9.80038,32.23983 l 25.78812,133.94697 c 3.75673,19.51293 -15.87247,33.87295 -35.5885,31.39389 l -73.42328,-9.23213 c -19.71604,-2.47907 -38.92869,-20.75503 -35.58852,-40.34358 l 21.96198,-128.79699 c 3.34016,-19.58854 -6.0895,-30.91919 13.62654,-28.44012 z"
       id="rect4795"
       inkscape:connector-curvature="0"
       sodipodi:nodetypes="sssssssss"
       inkscape:export-filename="C:\Users\Meli\Desktop\robot.png"
       inkscape:export-xdpi="300"
       inkscape:export-ydpi="300" />
    <path
       style="fill:#999999;fill-opacity:1;stroke:none"
       d="m 283.86424,546.3546 c 7.94447,7.02337 16.92774,7.37598 26.36962,4.78349 l 0.13119,21.29691 c -9.99608,4.72136 -18.80269,6.40856 -26.94775,-5.51138 z"
       id="path5299-8-0"
       inkscape:connector-curvature="0"
       sodipodi:nodetypes="ccccc"
       inkscape:export-filename="C:\Users\Meli\Desktop\robot.png"
       inkscape:export-xdpi="300"
       inkscape:export-ydpi="300" />
    <path
       style="fill:#999999;fill-opacity:1;stroke:none"
       d="m 349.24293,262.81333 31.52992,-8.58709 c 10.9299,-2.97674 24.49057,-9.9025 24.49057,11.39868 l 0,76.5872 c 0,11.32801 -8.69878,23.18616 -19.50398,26.5878 l -36.51651,11.49594 c -10.80521,3.40164 -19.50398,-2.97951 -19.50398,-14.30752 l 0,-76.5872 c 0,-11.328 8.57407,-23.61107 19.50398,-26.58781 z"
       id="rect4867"
       inkscape:connector-curvature="0"
       sodipodi:nodetypes="sssssssss"
       inkscape:export-filename="C:\Users\Meli\Desktop\robot.png"
       inkscape:export-xdpi="300"
       inkscape:export-ydpi="300" />
    <path
       style="fill:#b3b3b3;fill-opacity:1;stroke:none"
       d="m 255.74666,230.24091 141.07772,17.95757 c 7.00692,0.8919 5.25797,8.43958 5.25797,8.43958 l -57.59532,14.97016 c -19.92763,5.17958 -24.0727,-3.60486 -35.31003,-5.03524 L 168.09927,248.61542 c -11.23733,-1.43039 -11.35837,-4.4531 -0.27138,-6.77739 l 47.62215,-9.98357 c 11.08699,-2.32429 29.05929,-3.04393 40.29662,-1.61355 z"
       id="rect4865"
       inkscape:connector-curvature="0"
       sodipodi:nodetypes="sscssssss"
       inkscape:export-filename="C:\Users\Meli\Desktop\robot.png"
       inkscape:export-xdpi="300"
       inkscape:export-ydpi="300" />
    <rect
       style="fill:#666666;fill-opacity:1;stroke:none"
       id="rect4787"
       width="208.22821"
       height="118.08511"
       x="147.77957"
       y="220.48103"
       ry="24.082474"
       transform="matrix(0.99113843,0.13283299,0,1,0,0)"
       inkscape:export-filename="C:\Users\Meli\Desktop\robot.png"
       inkscape:export-xdpi="300"
       inkscape:export-ydpi="300" />
    <path
       style="fill:#999999;stroke:none"
       d="m 178.47372,392.86497 -20.17057,-10.24045 c -6.42378,6.4153 -14.05257,10.20791 -13.34361,22.96343 l 18.61898,10.55076 c 0.055,-9.5434 5.74986,-17.03593 14.8952,-23.27374 z"
       id="path4873-7"
       inkscape:connector-curvature="0"
       sodipodi:nodetypes="ccccc"
       inkscape:export-filename="C:\Users\Meli\Desktop\robot.png"
       inkscape:export-xdpi="300"
       inkscape:export-ydpi="300" />
    <path
       style="fill:#999999;stroke:none"
       d="m 156.44125,379.83168 -18.30867,-11.79203 c -5.18252,3.62245 -15.29384,9.89759 -14.58488,22.65311 l 17.99835,12.41266 c 0.055,-9.5434 5.74986,-17.03593 14.8952,-23.27374 z"
       id="path4873-7-4"
       inkscape:connector-curvature="0"
       sodipodi:nodetypes="ccccc"
       inkscape:export-filename="C:\Users\Meli\Desktop\robot.png"
       inkscape:export-xdpi="300"
       inkscape:export-ydpi="300" />
    <path
       style="fill:#999999;fill-opacity:1;stroke:none"
       d="m 240.43589,395.10057 25.61265,3.11304 c 6.68773,0.81285 6.36013,5.67776 7.19368,11.48747 l 4.87804,33.99949 c 0.83354,5.80972 -5.38399,9.88411 -12.07172,9.07126 l -25.61265,-3.11304 c -6.68774,-0.81285 -13.01013,-6.24271 -12.07173,-12.00573 l 5.36586,-32.95344 c 0.9384,-5.76302 0.0182,-10.4119 6.70587,-9.59905 z"
       id="rect4931"
       inkscape:connector-curvature="0"
       sodipodi:nodetypes="sssssssss"
       inkscape:export-filename="C:\Users\Meli\Desktop\robot.png"
       inkscape:export-xdpi="300"
       inkscape:export-ydpi="300" />
    <path
       style="fill:#333333;stroke:none"
       d="m 240.48609,395.10667 c 0,0 -7.53533,43.30296 -5.18613,45.75879 1.90299,4.2599 33.29523,7.03207 39.219,5.82638 1.55149,-0.46031 3.6101,-3.24626 3.6101,-3.24626 0.83354,5.80972 -5.3108,11.25178 -11.99808,10.43527 l -26.09934,-3.18667 c -7.22679,-0.88237 -13.11773,-5.88732 -12.14538,-12.07937 l 5.36586,-34.17018 c 0.90581,-5.76823 0.65524,-10.42315 7.23397,-9.33796 z"
       id="rect4931-3"
       inkscape:connector-curvature="0"
       sodipodi:nodetypes="ccccssssc"
       inkscape:export-filename="C:\Users\Meli\Desktop\robot.png"
       inkscape:export-xdpi="300"
       inkscape:export-ydpi="300" />
    <path
       style="fill:#4d4d4d;fill-opacity:1;stroke:none"
       d="m 189.2719,264.08564 8.97107,1.84022 c 3.06925,0.62959 5.54017,3.65881 5.54017,6.79198 l 0,38.04627 c 0,3.13316 -5.14979,8.15836 -7.85379,6.57563 l -6.65745,-3.89677 c -2.70401,-1.58272 -5.38909,-3.66246 -5.54017,-6.79197 l -1.79949,-37.27507 c -0.15108,-3.12951 4.27041,-5.91988 7.33966,-5.29029 z"
       id="rect4953-6"
       inkscape:connector-curvature="0"
       sodipodi:nodetypes="sssssssss"
       inkscape:export-filename="C:\Users\Meli\Desktop\robot.png"
       inkscape:export-xdpi="300"
       inkscape:export-ydpi="300" />
    <rect
       style="fill:#333333;fill-opacity:1;stroke:none"
       id="rect4953"
       width="20.468925"
       height="49.357327"
       x="183.09622"
       y="229.24193"
       ry="5.6555276"
       transform="matrix(0.9796027,0.20094413,0,1,0,0)"
       inkscape:export-filename="C:\Users\Meli\Desktop\robot.png"
       inkscape:export-xdpi="300"
       inkscape:export-ydpi="300" />
    <path
       style="fill:#4d4d4d;fill-opacity:1;stroke:none"
       d="m 290.55573,277.73252 8.97107,1.84022 c 3.06926,0.62959 5.54018,3.65881 5.54018,6.79198 l 0,38.04627 c 0,3.13316 -5.14979,8.15836 -7.8538,6.57563 l -6.65745,-3.89677 c -2.70401,-1.58273 -5.38909,-3.66246 -5.54017,-6.79197 l -1.79948,-37.27507 c -0.15109,-3.12952 4.2704,-5.91988 7.33965,-5.29029 z"
       id="rect4953-6-5"
       inkscape:connector-curvature="0"
       sodipodi:nodetypes="sssssssss"
       inkscape:export-filename="C:\Users\Meli\Desktop\robot.png"
       inkscape:export-xdpi="300"
       inkscape:export-ydpi="300" />
    <rect
       style="fill:#333333;fill-opacity:1;stroke:none"
       id="rect4953-2"
       width="20.468925"
       height="49.357327"
       x="286.48898"
       y="222.11263"
       ry="5.6555276"
       transform="matrix(0.9796027,0.20094413,0,1,0,0)"
       inkscape:export-filename="C:\Users\Meli\Desktop\robot.png"
       inkscape:export-xdpi="300"
       inkscape:export-ydpi="300" />
    <path
       style="fill:#808080;stroke:none"
       d="m 266.83589,243.73408 -1.55642,-64.59144 c 2.42403,0.89912 4.74543,2.10613 8.17121,0 l 3.89105,65.36965 c -3.50195,1.55989 -7.00389,1.79961 -10.50584,-0.77821 z"
       id="path4995"
       inkscape:connector-curvature="0"
       sodipodi:nodetypes="ccccc"
       inkscape:export-filename="C:\Users\Meli\Desktop\robot.png"
       inkscape:export-xdpi="300"
       inkscape:export-ydpi="300" />
    <rect
       style="fill:#808080;fill-opacity:1;stroke:none"
       id="rect4997"
       width="7.1262412"
       height="15.175097"
       x="192.2117"
       y="261.25659"
       ry="2.51581"
       transform="matrix(0.98283104,0.18450783,0,1,0,0)"
       inkscape:export-filename="C:\Users\Meli\Desktop\robot.png"
       inkscape:export-xdpi="300"
       inkscape:export-ydpi="300" />
    <rect
       style="fill:#808080;fill-opacity:1;stroke:none"
       id="rect4997-1"
       width="7.1262412"
       height="15.175097"
       x="288.90659"
       y="255.50047"
       ry="2.51581"
       transform="matrix(0.98283104,0.18450783,0,1,0,0)"
       inkscape:export-filename="C:\Users\Meli\Desktop\robot.png"
       inkscape:export-xdpi="300"
       inkscape:export-ydpi="300" />
    <path
       style="fill:#4d4d4d;stroke:none"
       d="m 263.18708,184.38671 c 1.73496,4.54134 9.37005,5.45532 12.82544,0.36561 l -2.04113,-14.33212 c -3.55128,2.0928 -9.54681,0.82697 -8.82352,-0.4902 z"
       id="path5036"
       inkscape:connector-curvature="0"
       sodipodi:nodetypes="ccccc"
       inkscape:export-filename="C:\Users\Meli\Desktop\robot.png"
       inkscape:export-xdpi="300"
       inkscape:export-ydpi="300" />
    <path
       style="fill:#808080;stroke:none"
       d="m 269.62334,168.37978 c -1.63808,0.0221 -5.88652,1.26432 -4.39584,2.19792 2.80988,1.75979 7.06755,1.61103 8.69612,-0.19113 1.13755,-1.2588 -2.7186,-2.02816 -4.30028,-2.00679 z"
       id="path5038"
       inkscape:connector-curvature="0"
       sodipodi:nodetypes="assa"
       inkscape:export-filename="C:\Users\Meli\Desktop\robot.png"
       inkscape:export-xdpi="300"
       inkscape:export-ydpi="300" />
    <rect
       style="fill:#808080;fill-opacity:1;stroke:none"
       id="rect5040"
       width="19.84029"
       height="22.802525"
       x="242.1463"
       y="385.81354"
       ry="1.7167275"
       transform="matrix(0.99154541,0.12976013,0,1,0,0)"
       inkscape:export-filename="C:\Users\Meli\Desktop\robot.png"
       inkscape:export-xdpi="300"
       inkscape:export-ydpi="300" />
    <path
       sodipodi:type="arc"
       style="fill:#808080;fill-opacity:1;stroke:none"
       id="path5042"
       sodipodi:cx="180.69101"
       sodipodi:cy="323.39996"
       sodipodi:rx="3.9075608"
       sodipodi:ry="4.0423045"
       d="m 184.59857,323.39996 a 3.9075608,4.0423045 0 1 1 -7.81512,0 3.9075608,4.0423045 0 1 1 7.81512,0 z"
       transform="translate(66.818992,82.673445)"
       inkscape:export-filename="C:\Users\Meli\Desktop\robot.png"
       inkscape:export-xdpi="300"
       inkscape:export-ydpi="300" />
    <path
       transform="translate(65.336809,84.020877)"
       sodipodi:type="arc"
       style="fill:#b3b3b3;fill-opacity:1;stroke:none"
       id="path5042-0"
       sodipodi:cx="180.69101"
       sodipodi:cy="323.39996"
       sodipodi:rx="3.9075608"
       sodipodi:ry="4.0423045"
       d="m 184.59857,323.39996 a 3.9075608,4.0423045 0 1 1 -7.81512,0 3.9075608,4.0423045 0 1 1 7.81512,0 z"
       inkscape:export-filename="C:\Users\Meli\Desktop\robot.png"
       inkscape:export-xdpi="300"
       inkscape:export-ydpi="300" />
    <path
       sodipodi:type="arc"
       style="fill:#808080;fill-opacity:1;stroke:none"
       id="path5042-3"
       sodipodi:cx="180.69101"
       sodipodi:cy="323.39996"
       sodipodi:rx="3.9075608"
       sodipodi:ry="4.0423045"
       d="m 184.59857,323.39996 a 3.9075608,4.0423045 0 1 1 -7.81512,0 3.9075608,4.0423045 0 1 1 7.81512,0 z"
       transform="translate(76.318406,83.886137)"
       inkscape:export-filename="C:\Users\Meli\Desktop\robot.png"
       inkscape:export-xdpi="300"
       inkscape:export-ydpi="300" />
    <path
       transform="translate(74.836223,85.233567)"
       sodipodi:type="arc"
       style="fill:#b3b3b3;fill-opacity:1;stroke:none"
       id="path5042-0-1"
       sodipodi:cx="180.69101"
       sodipodi:cy="323.39996"
       sodipodi:rx="3.9075608"
       sodipodi:ry="4.0423045"
       d="m 184.59857,323.39996 a 3.9075608,4.0423045 0 1 1 -7.81512,0 3.9075608,4.0423045 0 1 1 7.81512,0 z"
       inkscape:export-filename="C:\Users\Meli\Desktop\robot.png"
       inkscape:export-xdpi="300"
       inkscape:export-ydpi="300" />
    <path
       sodipodi:type="arc"
       style="fill:#808080;fill-opacity:1;stroke:none"
       id="path5042-5"
       sodipodi:cx="180.69101"
       sodipodi:cy="323.39996"
       sodipodi:rx="3.9075608"
       sodipodi:ry="4.0423045"
       d="m 184.59857,323.39996 a 3.9075608,4.0423045 0 1 1 -7.81512,0 3.9075608,4.0423045 0 1 1 7.81512,0 z"
       transform="translate(86.558916,85.503058)"
       inkscape:export-filename="C:\Users\Meli\Desktop\robot.png"
       inkscape:export-xdpi="300"
       inkscape:export-ydpi="300" />
    <path
       transform="translate(85.076736,86.850488)"
       sodipodi:type="arc"
       style="fill:#b3b3b3;fill-opacity:1;stroke:none"
       id="path5042-0-5"
       sodipodi:cx="180.69101"
       sodipodi:cy="323.39996"
       sodipodi:rx="3.9075608"
       sodipodi:ry="4.0423045"
       d="m 184.59857,323.39996 a 3.9075608,4.0423045 0 1 1 -7.81512,0 3.9075608,4.0423045 0 1 1 7.81512,0 z"
       inkscape:export-filename="C:\Users\Meli\Desktop\robot.png"
       inkscape:export-xdpi="300"
       inkscape:export-ydpi="300" />
    <path
       style="fill:#808080;fill-opacity:1;stroke:none"
       d="m 266.51393,418.81977 5.47935,0.58998 c 0.9456,0.10182 1.70687,0.94945 1.70687,1.90052 l 0,19.36907 c 0,0.95107 -1.78166,3.37247 -2.6491,2.98253 l -4.53712,-2.03957 c -0.86745,-0.38994 -1.65171,-0.95105 -1.70686,-1.90052 l -1.08719,-18.71675 c -0.0552,-0.94947 1.84845,-2.28708 2.79405,-2.18526 z"
       id="rect5040-2"
       inkscape:connector-curvature="0"
       sodipodi:nodetypes="sssssssss"
       inkscape:export-filename="C:\Users\Meli\Desktop\robot.png"
       inkscape:export-xdpi="300"
       inkscape:export-ydpi="300" />
    <rect
       style="fill:#cccccc;fill-opacity:1;stroke:none"
       id="rect5040-2-2"
       width="8.9444733"
       height="22.802525"
       x="264.71146"
       y="391.914"
       ry="1.7167275"
       transform="matrix(0.99425303,0.10705568,0,1,0,0)"
       inkscape:export-filename="C:\Users\Meli\Desktop\robot.png"
       inkscape:export-xdpi="300"
       inkscape:export-ydpi="300" />
    <path
       style="fill:none;stroke:#666666;stroke-width:1px;stroke-linecap:butt;stroke-linejoin:miter;stroke-opacity:1"
       d="m 263.19015,427.89752 9.02286,1.25726"
       id="path5128"
       inkscape:connector-curvature="0"
       sodipodi:nodetypes="cc"
       inkscape:export-filename="C:\Users\Meli\Desktop\robot.png"
       inkscape:export-xdpi="300"
       inkscape:export-ydpi="300" />
    <path
       style="fill:none;stroke:#666666;stroke-width:1px;stroke-linecap:butt;stroke-linejoin:miter;stroke-opacity:1"
       d="m 263.19015,435.36289 9.02996,1.16109"
       id="path5130"
       inkscape:connector-curvature="0"
       sodipodi:nodetypes="cc"
       inkscape:export-filename="C:\Users\Meli\Desktop\robot.png"
       inkscape:export-xdpi="300"
       inkscape:export-ydpi="300" />
    <rect
       style="fill:#666666;fill-opacity:1;stroke:none"
       id="rect5135"
       width="1.1032835"
       height="1.08876"
       x="340.45984"
       y="633.30481"
       ry="0"
       transform="matrix(0.79914416,-0.60113943,0,1,0,0)"
       inkscape:export-filename="C:\Users\Meli\Desktop\robot.png"
       inkscape:export-xdpi="300"
       inkscape:export-ydpi="300" />
    <rect
       style="fill:#666666;fill-opacity:1;stroke:none"
       id="rect5135-1"
       width="1.1032835"
       height="1.08876"
       x="340.50192"
       y="640.65405"
       ry="0"
       transform="matrix(0.79914416,-0.60113943,0,1,0,0)"
       inkscape:export-filename="C:\Users\Meli\Desktop\robot.png"
       inkscape:export-xdpi="300"
       inkscape:export-ydpi="300" />
    <path
       style="fill:#999999;fill-opacity:1;stroke:none"
       d="m 208.72859,331.53511 c 20.24974,4.66913 40.49947,7.44476 60.74922,6.57135 3.18195,-0.13725 5.71561,3.1823 5.71561,6.36723 l 0,6.63341 c 0,3.18493 -2.54917,5.47321 -5.71561,5.13069 l -60.74922,-6.57135 c -3.16645,-0.34252 -5.71562,-3.1823 -5.71562,-6.36723 l 0,-6.63341 c 0,-3.18493 2.61213,-5.84628 5.71562,-5.13069 z"
       id="rect5155"
       inkscape:connector-curvature="0"
       sodipodi:nodetypes="sssssssss"
       inkscape:export-filename="C:\Users\Meli\Desktop\robot.png"
       inkscape:export-xdpi="300"
       inkscape:export-ydpi="300" />
    <path
       style="fill:#333333;fill-opacity:1;stroke:none"
       d="m 208.60607,331.95605 c -1.09408,1.09409 -2.10494,14.11411 -0.14099,13.54517 0.36473,1.75962 60.1988,8.06984 63.23319,7.10254 l 3.37263,-1.07543 c 0,3.18492 -2.54917,5.47321 -5.71562,5.13069 l -60.74921,-6.57135 c -3.16645,-0.34252 -5.71562,-3.1823 -5.71562,-6.36722 l 0,-6.63342 c 0,-3.18492 2.43337,-5.9943 5.59982,-5.65178 z"
       id="rect5155-7"
       inkscape:connector-curvature="0"
       sodipodi:nodetypes="ccscsssscc"
       inkscape:export-filename="C:\Users\Meli\Desktop\robot.png"
       inkscape:export-xdpi="300"
       inkscape:export-ydpi="300" />
    <path
       style="fill:none;stroke:#333333;stroke-width:1px;stroke-linecap:butt;stroke-linejoin:miter;stroke-opacity:1"
       d="m 215.65886,347.26065 0.56316,-14.06914"
       id="path5176"
       inkscape:connector-curvature="0"
       sodipodi:nodetypes="cc"
       inkscape:export-filename="C:\Users\Meli\Desktop\robot.png"
       inkscape:export-xdpi="300"
       inkscape:export-ydpi="300" />
    <path
       style="fill:none;stroke:#333333;stroke-width:1.01883197px;stroke-linecap:butt;stroke-linejoin:miter;stroke-opacity:1"
       d="M 225.74868,349.56016 226.293,334.99067"
       id="path5176-4"
       inkscape:connector-curvature="0"
       sodipodi:nodetypes="cc"
       inkscape:export-filename="C:\Users\Meli\Desktop\robot.png"
       inkscape:export-xdpi="300"
       inkscape:export-ydpi="300" />
    <path
       style="fill:none;stroke:#333333;stroke-width:1.02597654px;stroke-linecap:butt;stroke-linejoin:miter;stroke-opacity:1"
       d="m 235.55107,351.02078 0.3854,-14.70931"
       id="path5176-8"
       inkscape:connector-curvature="0"
       sodipodi:nodetypes="cc"
       inkscape:export-filename="C:\Users\Meli\Desktop\robot.png"
       inkscape:export-xdpi="300"
       inkscape:export-ydpi="300" />
    <path
       style="fill:none;stroke:#333333;stroke-width:1.02597642px;stroke-linecap:butt;stroke-linejoin:miter;stroke-opacity:1"
       d="m 244.33622,351.92182 0.53718,-14.7093"
       id="path5176-2"
       inkscape:connector-curvature="0"
       sodipodi:nodetypes="cc"
       inkscape:export-filename="C:\Users\Meli\Desktop\robot.png"
       inkscape:export-xdpi="300"
       inkscape:export-ydpi="300" />
    <path
       style="fill:none;stroke:#333333;stroke-width:1.03119898px;stroke-linecap:butt;stroke-linejoin:miter;stroke-opacity:1"
       d="m 254.58818,353.38339 0.38018,-15.49731"
       id="path5176-3"
       inkscape:connector-curvature="0"
       sodipodi:nodetypes="cc"
       inkscape:export-filename="C:\Users\Meli\Desktop\robot.png"
       inkscape:export-xdpi="300"
       inkscape:export-ydpi="300" />
    <path
       style="fill:none;stroke:#333333;stroke-width:1px;stroke-linecap:butt;stroke-linejoin:miter;stroke-opacity:1"
       d="m 264.03352,352.61058 0.56316,-14.37269"
       id="path5176-6"
       inkscape:connector-curvature="0"
       sodipodi:nodetypes="cc"
       inkscape:export-filename="C:\Users\Meli\Desktop\robot.png"
       inkscape:export-xdpi="300"
       inkscape:export-ydpi="300" />
    <path
       style="fill:#333333;stroke:none"
       d="m 328.8429,420.09773 c 42.1743,13.29191 71.83157,34.09404 93.98496,59.39849 -12.45096,2.27454 -19.34367,8.02299 -15.78947,20.30076 -19.6406,-25.63722 -43.35733,-46.17928 -78.94737,-51.8797 -10.12546,-12.02416 -4.2714,-23.29662 0.75188,-27.81955 z"
       id="path5225"
       inkscape:connector-curvature="0"
       sodipodi:nodetypes="ccccc"
       inkscape:export-filename="C:\Users\Meli\Desktop\robot.png"
       inkscape:export-xdpi="300"
       inkscape:export-ydpi="300" />
    <path
       style="fill:#b3b3b3;stroke:none"
       d="m 331.05554,450.59921 c -10.04176,-18.73678 -2.20346,-25.15637 2.92822,-30.6164 l 22.93472,9.10036 c -6.08024,6.14289 -5.92935,14.98707 -3.63755,27.56998 z"
       id="path5229"
       inkscape:connector-curvature="0"
       sodipodi:nodetypes="ccccc"
       inkscape:export-filename="C:\Users\Meli\Desktop\robot.png"
       inkscape:export-xdpi="300"
       inkscape:export-ydpi="300" />
    <path
       style="fill:#b3b3b3;stroke:none"
       d="m 356.46026,458.56015 c -3.05646,-18.73678 -1.46818,-23.31814 3.6635,-28.77817 l 21.83179,12.04154 c -6.08024,6.14289 -11.8117,13.88412 -9.5199,26.46703 z"
       id="path5229-3"
       inkscape:connector-curvature="0"
       sodipodi:nodetypes="ccccc"
       inkscape:export-filename="C:\Users\Meli\Desktop\robot.png"
       inkscape:export-xdpi="300"
       inkscape:export-ydpi="300" />
    <path
       style="fill:#b3b3b3;stroke:none"
       d="m 375.35324,470.6925 c -3.05646,-18.73678 4.41417,-22.2152 9.54585,-27.67523 l 21.0965,16.4533 c -6.08024,6.14289 -15.12053,13.88412 -12.82873,26.46703 z"
       id="path5229-3-0"
       inkscape:connector-curvature="0"
       sodipodi:nodetypes="ccccc"
       inkscape:export-filename="C:\Users\Meli\Desktop\robot.png"
       inkscape:export-xdpi="300"
       inkscape:export-ydpi="300" />
    <path
       style="fill:#333333;stroke:none"
       d="m 90.951186,363.18424 5.65854,-2.69817 c 0,0 7.459214,5.98187 13.458274,-0.31058 7.10249,-7.44984 -0.93522,-20.37575 -0.93522,-20.37575 l 16.8781,9.91971 -7.70541,18.54705 -16.10538,6.50604 -7.908854,-4.8152 z"
       id="path5271"
       inkscape:connector-curvature="0"
       sodipodi:nodetypes="ccscccccc"
       inkscape:export-filename="C:\Users\Meli\Desktop\robot.png"
       inkscape:export-xdpi="300"
       inkscape:export-ydpi="300" />
    <path
       style="fill:#999999;stroke:none"
       d="m 90.712776,363.03305 -0.36765,11.76472 c 0,0 17.187014,10.40719 29.779414,0.73528 13.24625,-10.17412 9.55883,-28.67647 9.55883,-28.67647 L 114.2422,343.9154 c 0,0 7.31879,12.31054 -0.7353,19.85295 -8.97892,8.40848 -22.794124,-0.7353 -22.794124,-0.7353 z"
       id="path5267"
       inkscape:connector-curvature="0"
       sodipodi:nodetypes="ccsccsc"
       inkscape:export-filename="C:\Users\Meli\Desktop\robot.png"
       inkscape:export-xdpi="300"
       inkscape:export-ydpi="300" />
    <path
       style="fill:#808080;stroke:none"
       d="m 114.2422,343.9154 15.44117,2.94118 -6.26062,-4.38389 -14.39,-2.69166 z"
       id="path5269"
       inkscape:connector-curvature="0"
       sodipodi:nodetypes="ccccc"
       inkscape:export-filename="C:\Users\Meli\Desktop\robot.png"
       inkscape:export-xdpi="300"
       inkscape:export-ydpi="300" />
    <path
       style="fill:#333333;stroke:none"
       d="m 435.14268,485.30234 -5.57429,-2.26068 c 0,0 -11.21182,-1.95519 -13.31201,6.4812 -1.07374,4.31318 4.55451,17.23687 4.55451,17.23687 l -4.65275,6.07721 c -13.3713,-6.01344 -7.67218,-19.79632 -8.63796,-30.86386 l 15.65818,-7.51886 8.19955,4.30156 z"
       id="path5271-3"
       inkscape:connector-curvature="0"
       sodipodi:nodetypes="ccscccccc"
       inkscape:export-filename="C:\Users\Meli\Desktop\robot.png"
       inkscape:export-xdpi="300"
       inkscape:export-ydpi="300" />
    <path
       style="fill:#999999;stroke:none"
       d="m 438.96424,488.65464 2.11921,-14.62345 c 0,0 -23.89093,-9.64851 -35.84158,0.80599 -12.57117,10.99734 -4.11248,36.99565 -4.11248,36.99565 l 15.02875,1.00411 c 0,0 -11.11979,-18.64036 -3.56257,-26.68055 8.425,-8.96343 26.36867,2.49825 26.36867,2.49825 z"
       id="path5267-5"
       inkscape:connector-curvature="0"
       sodipodi:nodetypes="ccsccsc"
       inkscape:export-filename="C:\Users\Meli\Desktop\robot.png"
       inkscape:export-xdpi="300"
       inkscape:export-ydpi="300" />
    <path
       style="fill:#999999;fill-opacity:1;stroke:none"
       d="m 218.0792,534.74667 c 7.94447,7.02337 16.92774,7.37598 26.36962,4.78348 l 0.13119,21.29692 c -9.99608,4.72136 -18.80269,6.40856 -26.94775,-5.51138 z"
       id="path5299-8"
       inkscape:connector-curvature="0"
       sodipodi:nodetypes="ccccc"
       inkscape:export-filename="C:\Users\Meli\Desktop\robot.png"
       inkscape:export-xdpi="300"
       inkscape:export-ydpi="300" />
    <path
       style="fill:#999999;fill-opacity:1;stroke:none"
       d="m 218.18811,560.80439 c 7.7401,7.02337 16.49231,7.37599 25.69131,4.78349 l 0.12783,21.29692 c -9.73896,4.72135 -18.31904,6.40855 -26.25458,-5.51138 z"
       id="path5299-0"
       inkscape:connector-curvature="0"
       sodipodi:nodetypes="ccccc"
       inkscape:export-filename="C:\Users\Meli\Desktop\robot.png"
       inkscape:export-xdpi="300"
       inkscape:export-ydpi="300" />
    <path
       style="fill:#999999;fill-opacity:1;stroke:none"
       d="m 283.97315,572.41232 c 7.7401,7.02337 16.49231,7.37599 25.69131,4.78349 l 0.12783,21.29692 c -9.73896,4.72135 -18.31903,6.40856 -26.25458,-5.51138 z"
       id="path5299-0-7"
       inkscape:connector-curvature="0"
       sodipodi:nodetypes="ccccc"
       inkscape:export-filename="C:\Users\Meli\Desktop\robot.png"
       inkscape:export-xdpi="300"
       inkscape:export-ydpi="300" />
  </g>
</svg>
